<?xml version="1.0" encoding="utf-8"?>
<!-- Generator: Adobe Illustrator 19.1.0, SVG Export Plug-In . SVG Version: 6.00 Build 0)  -->
<!DOCTYPE svg PUBLIC "-//W3C//DTD SVG 1.1//EN" "http://www.w3.org/Graphics/SVG/1.1/DTD/svg11.dtd">
<svg version="1.1" id="Layer_1" xmlns="http://www.w3.org/2000/svg" xmlns:xlink="http://www.w3.org/1999/xlink" x="0px" y="0px"
	 viewBox="0 0 470 227.1" style="enable-background:new 0 0 470 227.1;" xml:space="preserve">
<style type="text/css">
	.st0{fill:#00E5DF;}
	.st1{fill:#A252CC;}
</style>
<g>
	<polygon class="st0" points="120,0 80,160 140,160 160,60 180,160 240,160 200,0 	"/>
	<path class="st1" d="M350,160V40h-40v80l-20-80L280,0h-80l40,160h8.4h26.5l-19.7-78.8c-0.1-0.4-0.1-0.8-0.1-1.2h10.1l20,80"/>
	<polygon class="st0" points="33.6,198.6 33.6,188.6 67.1,188.6 67.1,160 0,160 0,227.1 67.1,227.1 67.1,198.6 	"/>
	<path class="st1" d="M0,160h80v-40h10L120,0H0V160z M40,40h30L60,80H40V40z"/>
	<path class="st1" d="M468.8,65.1c0.4-0.1,0.8-0.1,1.2-0.1V40h-80v84.8l38.8-9.7c0.4-0.1,0.8-0.1,1.2-0.1v10.1l-38.8,9.7
		c-0.4,0.1-0.8,0.1-1.2,0.2v25h80V75.2l-38.8,9.7c-0.4,0.1-0.8,0.1-1.2,0.2V74.8L468.8,65.1z"/>
	<path class="st0" d="M402.9,227.1h43.3l-13.3-13.3l7.1-7.1l20.3,20.3h9.7V160h-67.1V227.1z M431.4,176.8h10v8.4h-10V176.8z"/>
	<polygon class="st1" points="369.3,198.6 369.3,188.6 402.9,188.6 402.9,181.8 369.3,181.8 369.3,171.8 402.9,171.8 402.9,160 
		335.7,160 335.7,227.1 402.9,227.1 402.9,198.6 	"/>
	<path class="st0" d="M268.6,227.1h67.1V160h-67.1V227.1z M297.1,188.6h38.6v10h-28.6v11.8h-10V188.6z"/>
	<path class="st1" d="M248.4,185.2h-10V160h-37v67.1h67.1V160h-20.2V185.2z M231.6,227.1h-10V202h10V227.1z"/>
	<path class="st0" d="M134.3,227.1h67.1V160h-67.1V227.1z M162.9,176.8h10v8.4h-10V176.8z M162.9,202h10v25.2h-10V202z"/>
	<path class="st1" d="M105.7,185.2h-10V160H80H67.1v28.6h0v10h0v28.6h67.1V160h-28.6V185.2z M105.7,227.1h-10V202h10V227.1z"/>
	<polygon class="st0" points="280,0 290,40 350,40 350,160 390,160 390,40 470,40 470,0 	"/>
</g>
</svg>
